<?xml version="1.0" encoding="utf-8"?><!-- Uploaded to: SVG Repo, www.svgrepo.com, Generator: SVG Repo Mixer Tools -->
<svg fill="#000000" width="800px" height="800px" viewBox="0 0 24 24" id="stopwatch-5-second" data-name="Flat Line" xmlns="http://www.w3.org/2000/svg" class="icon flat-line"><path id="secondary" d="M12,6a7.5,7.5,0,1,0,7.5,7.5A7.5,7.5,0,0,0,12,6Zm2.06,10.32L12,14V10a3.49,3.49,0,0,1,2.06,6.32Z" style="fill: rgb(44, 169, 188); stroke-width: 2;"></path><path id="primary" d="M17.3,8.2l1.5-1.5M6.7,8.2,5.2,6.7M12,10v4l2.06,2.32A3.49,3.49,0,0,0,12,10Zm0-4V3M9,3h6M4.5,13.5A7.5,7.5,0,1,0,12,6,7.5,7.5,0,0,0,4.5,13.5Z" style="fill: none; stroke: rgb(0, 0, 0); stroke-linecap: round; stroke-linejoin: round; stroke-width: 2;"></path></svg>